<svg width="65" height="65" viewBox="0 0 65 65" fill="none" xmlns="http://www.w3.org/2000/svg">
<g clip-path="url(#clip0_1_959)">
<path d="M34.907 65C24.274 65 17.432 64.533 9.63 61.389V51.76C9.63 51.76 14.036 48.148 25.278 48.148H36.111C36.4272 48.1479 36.7403 48.2101 37.0325 48.3311C37.3247 48.452 37.5901 48.6294 37.8137 48.8531C38.0372 49.0767 38.2145 49.3422 38.3353 49.6344C38.4562 49.9266 38.5183 50.2398 38.518 50.556C38.5106 50.8808 38.4391 51.201 38.3075 51.498C38.1759 51.7951 37.9869 52.0632 37.7513 52.2869C37.5156 52.5106 37.2381 52.6855 36.9347 52.8015C36.6312 52.9176 36.3078 52.9725 35.983 52.963H28.889C28.5697 52.963 28.2634 53.0899 28.0376 53.3157C27.8118 53.5414 27.685 53.8477 27.685 54.167C27.685 54.4863 27.8118 54.7926 28.0376 55.0184C28.2634 55.2442 28.5697 55.371 28.889 55.371H34.327C35.5595 55.3708 36.7757 55.0893 37.883 54.548C39.121 53.948 60.369 42.948 61.542 42.382C61.9077 42.1996 62.314 42.114 62.7222 42.1334C63.1304 42.1527 63.5268 42.2764 63.8736 42.4925C64.2205 42.7086 64.5061 43.01 64.7033 43.368C64.9005 43.7259 65.0026 44.1284 65 44.537C65.0032 44.9181 64.9139 45.2942 64.7397 45.6332C64.5655 45.9721 64.3117 46.2638 64 46.483C62.33 47.64 41.333 63.219 40.128 64.083C39.3096 64.676 38.3256 64.9967 37.315 65H34.907ZM0 48.148C1.91549 48.148 3.75253 48.9089 5.10708 50.2632C6.46163 51.6176 7.22273 53.4545 7.223 55.37V57.778C7.223 58.7265 7.03616 59.6657 6.67316 60.542C6.31016 61.4183 5.7781 62.2145 5.10737 62.8851C4.43664 63.5557 3.64038 64.0877 2.76405 64.4506C1.88772 64.8134 0.948491 65.0001 0 65L0 48.148ZM49.352 27.685C43.587 31.297 39.735 42.153 39.052 43.345C38.6347 44.0747 38.0319 44.681 37.3046 45.1025C36.5774 45.524 35.7516 45.7457 34.911 45.745H16.25C15.1329 45.7439 14.0618 45.2998 13.2718 44.5099C12.4818 43.7201 12.0373 42.6491 12.036 41.532C12.1081 40.2145 12.6213 38.9596 13.493 37.969C17.7109 33.5466 22.4808 29.6859 27.685 26.482L32.5 31.3C33.728 29.626 37.88 24.066 42.057 18.624C46.234 13.182 50.435 7.86301 51.757 6.67201C53.0591 5.45025 54.7867 4.78504 56.572 4.81801C58.4874 4.81801 60.3245 5.57829 61.6798 6.93186C63.035 8.28543 63.7976 10.1216 63.8 12.037C63.7974 12.5347 63.7448 13.0308 63.643 13.518C63.198 15.649 63.258 15.372 62.512 18.971C61.85 22.125 60.562 28.252 57.782 41.601C55.832 42.601 52.943 44.093 49.355 45.934L49.352 27.685ZM15.812 25.218C14.373 24.863 12.434 24.379 10.997 24.018C10.5339 23.9018 10.136 23.6065 9.89068 23.1969C9.64538 22.7873 9.57283 22.2971 9.689 21.834C9.80517 21.3709 10.1005 20.973 10.5101 20.7277C10.9197 20.4824 11.4099 20.4098 11.873 20.526C13.273 20.87 15.334 21.387 16.688 21.726C16.9173 21.7835 17.133 21.8857 17.3228 22.0265C17.5126 22.1674 17.6729 22.3443 17.7943 22.5471C17.9158 22.7499 17.9961 22.9747 18.0307 23.2085C18.0653 23.4424 18.0535 23.6807 17.996 23.91C17.9385 24.1393 17.8364 24.355 17.6955 24.5448C17.5546 24.7347 17.3777 24.8949 17.1749 25.0163C16.9721 25.1378 16.7474 25.2181 16.5135 25.2527C16.2797 25.2873 16.0413 25.2755 15.812 25.218ZM22.2 12.712L18.584 9.10001C18.4164 8.93238 18.2834 8.73337 18.1927 8.51435C18.102 8.29533 18.0553 8.06058 18.0553 7.82351C18.0553 7.58644 18.102 7.3517 18.1927 7.13268C18.2834 6.91365 18.4164 6.71465 18.584 6.54701C18.7516 6.37938 18.9506 6.24641 19.1697 6.15569C19.3887 6.06496 19.6234 6.01827 19.8605 6.01827C20.0976 6.01827 20.3323 6.06496 20.5513 6.15569C20.7704 6.24641 20.9694 6.37938 21.137 6.54701L24.749 10.158C24.9251 10.3235 25.0661 10.5226 25.1638 10.7436C25.2615 10.9645 25.3138 11.2029 25.3177 11.4444C25.3216 11.686 25.2769 11.9259 25.1863 12.1499C25.0958 12.3739 24.9612 12.5774 24.7905 12.7484C24.6198 12.9194 24.4166 13.0544 24.1927 13.1454C23.9689 13.2364 23.7291 13.2816 23.4875 13.2782C23.246 13.2748 23.0075 13.2229 22.7864 13.1257C22.5652 13.0284 22.3658 12.8877 22.2 12.712ZM34.968 7.05801C34.651 5.80601 34.224 4.09201 33.768 2.24401C33.7305 2.10098 33.7107 1.95388 33.709 1.80601C33.7051 1.36397 33.8639 0.935942 34.1553 0.603517C34.4467 0.271092 34.8503 0.0575193 35.289 0.00351014C35.7278 -0.050499 36.171 0.0588329 36.5344 0.310665C36.8977 0.562496 37.1556 0.939216 37.259 1.36901C37.937 4.05001 38.159 4.98101 38.459 6.18301C38.5221 6.41407 38.5384 6.65539 38.5071 6.89284C38.4757 7.13029 38.3973 7.35909 38.2763 7.56584C38.1554 7.77259 37.9945 7.95313 37.8029 8.09688C37.6113 8.24063 37.393 8.3447 37.1607 8.40299C36.9283 8.46129 36.6867 8.47263 36.45 8.43636C36.2132 8.40009 35.9861 8.31694 35.7819 8.19177C35.5777 8.0666 35.4005 7.90194 35.2608 7.70743C35.121 7.51292 35.0215 7.29148 34.968 7.05801Z" fill="url(#paint0_linear_1_959)"/>
</g>
<defs>
<linearGradient id="paint0_linear_1_959" x1="32.5" y1="-0.00997925" x2="32.5" y2="65" gradientUnits="userSpaceOnUse">
<stop stop-color="#9D63FE"/>
<stop offset="1" stop-color="#1F2C71"/>
</linearGradient>
<clipPath id="clip0_1_959">
<rect width="65" height="65" fill="white"/>
</clipPath>
</defs>
</svg>
