<svg width="71" height="71" viewBox="0 0 71 71" fill="none" xmlns="http://www.w3.org/2000/svg">
<g clip-path="url(#clip0_1_961)">
<path d="M61.476 70.169L11.1169 61.309C10.7005 61.2355 10.3236 61.0173 10.0524 60.6929C9.78127 60.3685 9.63344 59.9588 9.63493 59.536C9.63425 59.4257 9.6437 59.3156 9.66301 59.207L10.4089 55.255L64.3988 64.755C64.2847 66.0434 64.1004 67.3247 63.8468 68.593C63.7525 69.041 63.5093 69.4438 63.1569 69.736C62.8045 70.0282 62.3636 70.1924 61.9059 70.202H61.863C61.7333 70.2021 61.6038 70.1911 61.476 70.169ZM35.2629 56.831C38.0629 49.68 42.9369 47.01 46.2109 46.016C51.285 48.798 56.2111 51.8421 60.9689 55.136C62.0804 55.8996 62.9891 56.9225 63.6164 58.1162C64.2436 59.31 64.5706 60.6385 64.569 61.987L35.2629 56.831ZM10.9198 52.549L13.0248 41.389C15.2389 42.2333 17.5883 42.6677 19.9579 42.671C23.4247 42.667 26.7483 41.2881 29.1996 38.8368C31.651 36.3854 33.0299 33.0618 33.0339 29.595C33.0339 18.816 25.5778 17.016 19.5878 15.568C19.0448 15.437 18.5058 15.306 17.9718 15.168L19.5829 6.63001C19.8658 4.74365 20.831 3.02666 22.2956 1.80463C23.7602 0.582594 25.6224 -0.0595287 27.529 1.48213e-05C30.5588 -0.0111645 33.5632 0.55387 36.382 1.66501C36.614 1.76298 36.8118 1.92718 36.9509 2.13707C37.0899 2.34696 37.1642 2.59322 37.164 2.84501C37.1644 3.04997 37.1153 3.25201 37.0209 3.43397C36.9266 3.61593 36.7897 3.77244 36.622 3.89022C36.4543 4.008 36.2607 4.08357 36.0575 4.11052C35.8544 4.13747 35.6476 4.115 35.455 4.04501C32.9057 3.16579 30.2255 2.7262 27.529 2.74501C25.451 2.73901 24.7758 3.83701 24.7758 5.14501C24.7758 7.63601 28.6669 8.25102 30.2819 8.25102C41.2939 8.25102 42.67 1.36901 46.8 1.36901C48.4061 1.44315 49.9996 1.6899 51.5529 2.10501C51.7683 2.15831 51.9596 2.28239 52.0961 2.45736C52.2326 2.63234 52.3065 2.84808 52.3058 3.07001C52.3054 3.13347 52.2992 3.19674 52.287 3.25901L50.6689 11.832L42.5629 14.974C41.6886 15.31 40.915 15.8644 40.3161 16.5845C39.7172 17.3046 39.3131 18.1662 39.142 19.087L34.5529 43.412C34.4546 43.946 34.4075 44.4881 34.412 45.031C34.4202 46.7117 34.9329 48.3512 35.884 49.737L36.0199 49.937C34.52 51.8727 33.3343 54.0325 32.506 56.337L10.9198 52.549ZM37.164 45.021C37.1602 44.6555 37.1913 44.2906 37.257 43.931L41.8459 19.606C41.9313 19.1454 42.1335 18.7144 42.433 18.3543C42.7326 17.9941 43.1195 17.7169 43.5568 17.549L50.068 15.025L44.6589 43.691C42.1552 44.5833 39.8665 45.9909 37.9408 47.823C37.4416 46.9726 37.1742 46.0061 37.165 45.02L37.164 45.021ZM67.7638 41.261L52.623 38.508C52.1473 38.4216 51.7172 38.1709 51.4074 37.7998C51.0976 37.4286 50.9278 36.9605 50.9279 36.477C50.9279 35.9296 51.1453 35.4046 51.5324 35.0175C51.9195 34.6305 52.4445 34.413 52.9919 34.413C53.1159 34.4128 53.2399 34.4239 53.362 34.446L68.4999 37.2C68.9764 37.2856 69.4077 37.5358 69.7184 37.9071C70.0292 38.2783 70.1995 38.7469 70.1999 39.231C70.1999 39.5022 70.1464 39.7707 70.0426 40.0213C69.9389 40.2718 69.7869 40.4994 69.5951 40.6912C69.4034 40.8829 69.1758 41.0351 68.9252 41.1388C68.6747 41.2426 68.4061 41.296 68.1349 41.296C68.0108 41.2951 67.8868 41.283 67.7648 41.26L67.7638 41.261ZM1.3759 27.53H6.882C4.78807 26.5629 3.02162 25.0059 1.79924 23.05C0.576859 21.094 -0.0484477 18.824 -7.72146e-05 16.518C-7.72146e-05 16.518 2.75303 19.271 5.50603 19.271C3.86492 17.4522 2.89354 15.1277 2.75285 12.682C2.76124 11.1039 3.24033 9.56424 4.12883 8.26002C11.0118 23.401 30.2819 13.18 30.2819 29.595C30.2819 32.3328 29.1944 34.9585 27.2585 36.8945C25.3225 38.8304 22.6967 39.918 19.9589 39.918C8.25891 39.917 1.37688 27.529 1.37688 27.529L1.3759 27.53ZM60.882 31.63L52.623 30.254C52.1474 30.1674 51.7171 29.9167 51.4074 29.5456C51.0977 29.1744 50.928 28.7064 50.9279 28.223C50.9279 27.6756 51.1453 27.1506 51.5324 26.7635C51.9195 26.3765 52.4445 26.159 52.9919 26.159C53.1159 26.1588 53.2399 26.1699 53.362 26.192L61.621 27.568C62.0975 27.6536 62.5288 27.9038 62.8395 28.2751C63.1503 28.6463 63.3206 29.1149 63.321 29.599C63.3207 30.1465 63.103 30.6715 62.7157 31.0585C62.3285 31.4456 61.8035 31.663 61.256 31.663C61.1308 31.6617 61.0059 31.649 60.883 31.625L60.882 31.63Z" fill="url(#paint0_linear_1_961)"/>
</g>
<defs>
<linearGradient id="paint0_linear_1_961" x1="35.0986" y1="-0.00378418" x2="35.0986" y2="70.202" gradientUnits="userSpaceOnUse">
<stop stop-color="#9D63FE"/>
<stop offset="1" stop-color="#2A3B95"/>
</linearGradient>
<clipPath id="clip0_1_961">
<rect width="70.199" height="70.2" fill="white"/>
</clipPath>
</defs>
</svg>
