<svg width="224" height="262" viewBox="0 0 224 262" fill="none" xmlns="http://www.w3.org/2000/svg">
<g clip-path="url(#clip0_1_194)">
<path d="M131.276 260.56L109.094 199.614C109.02 199.408 108.987 199.19 108.997 198.972C109.007 198.753 109.059 198.539 109.152 198.341C109.245 198.143 109.376 197.965 109.538 197.818C109.699 197.67 109.888 197.556 110.094 197.482L114.794 195.773L134.71 250.491C140.061 247.414 142.51 245.857 146.66 244.345C158.719 239.956 166.824 242.3 173.018 243.686C176.723 238.837 181.456 231.681 193.633 227.248C197.783 225.738 200.661 225.358 206.733 224.276L186.817 169.558L191.517 167.849C191.722 167.774 191.94 167.74 192.159 167.749C192.377 167.758 192.592 167.811 192.79 167.903C192.989 167.995 193.167 168.126 193.315 168.287C193.463 168.448 193.577 168.637 193.652 168.842L215.835 229.788C215.985 230.203 215.964 230.661 215.776 231.061C215.589 231.461 215.25 231.77 214.835 231.92L183.521 243.32L181.231 248.22C180.782 249.181 179.969 249.924 178.972 250.286L172.692 252.572C171.695 252.934 170.595 252.887 169.633 252.44L164.733 250.159L133.419 261.559C133.236 261.625 133.043 261.659 132.848 261.659C132.505 261.66 132.169 261.555 131.888 261.358C131.607 261.162 131.393 260.883 131.276 260.56ZM17.376 243.26C16.1669 243.26 14.9696 243.022 13.8525 242.56C12.7355 242.097 11.7207 241.419 10.8657 240.564C10.0108 239.709 9.33234 238.694 8.86963 237.577C8.40692 236.46 8.16895 235.263 8.16895 234.054C8.16861 233.381 8.24261 232.711 8.38916 232.054L15.5708 193.654C24.4388 195.64 35.1111 196.254 44.9521 196.254C54.7931 196.254 65.4368 195.637 74.2998 193.654L81.5142 232.046C81.6607 232.703 81.7342 233.373 81.7339 234.046C81.7339 235.255 81.4959 236.452 81.0332 237.569C80.5705 238.686 79.8921 239.701 79.0371 240.556C78.1821 241.411 77.1673 242.089 76.0503 242.552C74.9333 243.014 73.7359 243.252 72.5269 243.252L17.376 243.26ZM20.5078 206.833L16.4209 231.354C16.3704 231.573 16.3441 231.796 16.3428 232.021C16.3428 232.834 16.6659 233.613 17.2407 234.188C17.8155 234.763 18.5953 235.086 19.4082 235.086C20.1048 235.085 20.7802 234.847 21.3232 234.411C21.8663 233.975 22.2444 233.366 22.395 232.686L26.4819 208.166C26.5327 207.947 26.559 207.724 26.5601 207.499C26.5601 206.686 26.2369 205.907 25.6621 205.332C25.0873 204.757 24.308 204.434 23.4951 204.434C22.7995 204.435 22.1247 204.673 21.5825 205.109C21.0403 205.545 20.6631 206.152 20.5122 206.831L20.5078 206.833ZM118.908 192.501L126.737 189.652C133.151 187.317 140.314 188.416 146.537 189.78C148.233 190.157 149.806 190.956 151.111 192.103C152.416 193.251 153.409 194.709 154 196.343L169.048 237.687C160.988 236.054 152.629 236.737 144.941 239.657C142.318 240.619 139.784 241.805 137.366 243.203L118.908 192.501ZM157.127 195.201C156.529 193.57 156.354 191.814 156.616 190.096C156.878 188.378 157.57 186.755 158.627 185.376C162.513 180.333 167.294 174.887 173.709 172.553L181.537 169.704L199.991 220.404C197.24 220.887 194.536 221.607 191.909 222.556C184.142 225.261 177.3 230.11 172.175 236.542L157.127 195.201ZM0 177.869C0 167.652 20.1271 163.569 44.9561 163.569C69.7851 163.569 89.9121 167.656 89.9121 177.869C89.9121 188.082 69.7841 192.169 44.9561 192.169C20.1281 192.169 0 188.086 0 177.869ZM16.3472 178.89C16.3476 179.606 16.5994 180.3 17.0586 180.85C17.5178 181.4 18.155 181.771 18.8599 181.899C24.6029 183.093 33.112 183.999 44.96 183.999C56.808 183.999 65.3141 183.093 71.0601 181.899C71.7647 181.771 72.4018 181.399 72.8608 180.85C73.3199 180.3 73.5714 179.606 73.5718 178.89C73.5715 178.077 73.2486 177.298 72.6738 176.723C72.0991 176.149 71.3195 175.826 70.5068 175.826C70.3182 175.827 70.13 175.846 69.9448 175.882C61.6988 177.325 53.3354 177.99 44.9648 177.869C36.5943 177.991 28.2309 177.325 19.9849 175.882C19.7994 175.846 19.6109 175.827 19.4219 175.826C19.0186 175.825 18.619 175.903 18.2461 176.056C17.8731 176.21 17.5342 176.435 17.2485 176.72C16.9629 177.004 16.7363 177.343 16.5815 177.715C16.4268 178.087 16.3473 178.487 16.3472 178.89ZM71.52 151.304C71.5197 150.767 71.6256 150.235 71.8315 149.74C72.0375 149.244 72.3396 148.794 72.7202 148.415L78.8511 142.285C79.2297 141.904 79.68 141.602 80.1758 141.396C80.6716 141.19 81.2033 141.085 81.7402 141.085C82.824 141.085 83.863 141.515 84.6294 142.282C85.3958 143.048 85.8269 144.087 85.8271 145.171C85.8274 145.708 85.7216 146.24 85.5156 146.736C85.3097 147.232 85.0075 147.682 84.627 148.061L78.4971 154.191C78.1181 154.571 77.6678 154.873 77.1719 155.079C76.6759 155.285 76.1439 155.391 75.6069 155.391C75.0699 155.391 74.5381 155.285 74.042 155.08C73.5459 154.874 73.0954 154.572 72.7158 154.193C72.3363 153.813 72.0352 153.362 71.8301 152.865C71.6249 152.369 71.5195 151.837 71.52 151.3V151.304ZM11.4141 154.194L5.28418 148.064C4.9036 147.685 4.60145 147.235 4.39551 146.739C4.18957 146.243 4.08371 145.711 4.08398 145.174C4.08398 144.637 4.18968 144.106 4.39502 143.61C4.60036 143.115 4.90134 142.664 5.28076 142.285C5.66018 141.905 6.11071 141.604 6.60645 141.399C7.10218 141.194 7.63334 141.088 8.16992 141.088C8.70711 141.088 9.23921 141.193 9.73535 141.399C10.2315 141.605 10.682 141.907 11.061 142.288L17.1909 148.418C17.5716 148.797 17.8736 149.247 18.0796 149.743C18.2855 150.238 18.3915 150.77 18.3911 151.307C18.3908 152.391 17.9603 153.43 17.1938 154.197C16.4274 154.963 15.3881 155.394 14.3042 155.394C13.7672 155.394 13.2352 155.288 12.7393 155.082C12.2433 154.876 11.793 154.575 11.4141 154.194ZM90.8462 100.367C86.2238 83.0367 88.6638 64.5804 97.6318 49.0472C106.6 33.514 121.363 22.1722 138.683 17.51L204.031 0L221.54 65.348C226.164 82.6785 223.723 101.135 214.755 116.669C205.786 132.202 191.022 143.544 173.702 148.205C167.996 149.738 162.115 150.515 156.207 150.518C141.316 150.501 126.845 145.579 115.031 136.514C103.217 127.45 94.7176 114.746 90.8462 100.367ZM142.767 32.75C129.486 36.3245 118.166 45.021 111.289 56.9316C104.412 68.8422 102.541 82.9942 106.085 96.283C109.66 109.563 118.357 120.883 130.267 127.76C142.178 134.636 156.329 136.507 169.618 132.963C182.898 129.389 194.219 120.692 201.096 108.782C207.973 96.8715 209.844 82.7196 206.3 69.431L192.874 19.324L142.767 32.75ZM40.8672 141.087V132.913C40.8671 132.376 40.9724 131.845 41.1777 131.349C41.3831 130.853 41.6844 130.402 42.064 130.023C42.4435 129.643 42.8937 129.342 43.3896 129.137C43.8856 128.932 44.4174 128.826 44.9541 128.826C45.4908 128.826 46.0223 128.932 46.5181 129.137C47.0139 129.343 47.4643 129.644 47.8438 130.023C48.2232 130.403 48.5242 130.853 48.7295 131.349C48.9348 131.845 49.0402 132.376 49.04 132.913V141.087C49.04 142.171 48.6095 143.21 47.8433 143.976C47.077 144.743 46.0378 145.173 44.9541 145.173C43.8708 145.173 42.8319 144.742 42.0659 143.976C41.2999 143.21 40.8694 142.171 40.8691 141.088L40.8672 141.087ZM125.841 101.316L121.902 86.616C121.634 85.6154 121.565 84.5718 121.7 83.5448C121.835 82.5177 122.172 81.5274 122.69 80.6303C123.208 79.7333 123.898 78.9472 124.72 78.3169C125.542 77.6866 126.48 77.2245 127.481 76.957C128.481 76.6889 129.525 76.6204 130.551 76.7555C131.578 76.8907 132.568 77.2267 133.465 77.7445C134.362 78.2623 135.148 78.9517 135.778 79.7733C136.409 80.5949 136.871 81.5327 137.139 82.533L141.078 97.233C141.62 99.2533 141.337 101.406 140.292 103.218C139.246 105.029 137.524 106.352 135.504 106.894C134.836 107.073 134.148 107.165 133.456 107.165C131.721 107.163 130.034 106.589 128.658 105.532C127.281 104.475 126.292 102.993 125.843 101.317L125.841 101.316ZM158.829 92.478L154.889 77.778C154.348 75.7579 154.631 73.6054 155.677 71.7942C156.722 69.983 158.445 68.6614 160.465 68.12C162.486 67.5784 164.638 67.8615 166.45 68.9069C168.262 69.9524 169.584 71.6747 170.126 73.695L174.065 88.395C174.606 90.4159 174.322 92.569 173.276 94.3807C172.23 96.1924 170.507 97.5144 168.486 98.056C167.819 98.2355 167.131 98.3266 166.44 98.327C164.705 98.3242 163.02 97.7497 161.644 96.6926C160.269 95.6355 159.28 94.1546 158.831 92.479L158.829 92.478Z" fill="white"/>
</g>
<defs>
<clipPath id="clip0_1_194">
<rect width="223.854" height="261.654" fill="white"/>
</clipPath>
</defs>
</svg>
