<svg width="391" height="391" viewBox="0 0 391 391" fill="none" xmlns="http://www.w3.org/2000/svg">
<path d="M307.843 390.381L349.112 236.459C371.868 151.585 321.336 64.0256 236.459 41.2688C151.582 18.512 64.0248 69.0478 41.2688 153.921C18.5128 238.795 69.0526 326.357 153.921 349.112L307.843 390.381ZM313.222 226.836L281.578 344.859L163.546 313.213C140.205 306.953 119.243 293.912 103.313 275.739C87.3826 257.566 77.1989 235.077 74.0495 211.116C70.9002 187.156 74.9266 162.799 85.6197 141.127C96.3127 119.454 113.192 101.439 134.124 89.36C155.055 77.2806 179.098 71.6792 203.213 73.2642C227.328 74.8493 250.431 83.5494 269.601 98.2646C288.772 112.98 303.148 133.049 310.912 155.935C318.677 178.82 319.48 203.494 313.222 226.836Z" fill="white"/>
</svg>
