<svg width="27" height="25" viewBox="0 0 27 25" fill="none" xmlns="http://www.w3.org/2000/svg">
<g clip-path="url(#clip0_1_932)">
<path d="M0.922974 24.448C0.799274 24.4521 0.676027 24.4312 0.560547 24.3867C0.445067 24.3422 0.339708 24.2749 0.250763 24.1888C0.161818 24.1027 0.0910886 23.9997 0.0427856 23.8857C-0.00551731 23.7718 -0.0303955 23.6493 -0.0303955 23.5255C-0.0303955 23.4017 -0.00551731 23.2792 0.0427856 23.1653C0.0910886 23.0513 0.161818 22.9483 0.250763 22.8622C0.339708 22.7761 0.445067 22.7088 0.560547 22.6643C0.676027 22.6198 0.799274 22.5989 0.922974 22.603H2.76797V10.609H23.986V22.6H25.831C25.9547 22.5959 26.0779 22.6168 26.1934 22.6613C26.3089 22.7058 26.4142 22.7731 26.5032 22.8592C26.5921 22.9453 26.6628 23.0483 26.7112 23.1623C26.7595 23.2762 26.7843 23.3987 26.7843 23.5225C26.7843 23.6463 26.7595 23.7688 26.7112 23.8827C26.6628 23.9967 26.5921 24.0997 26.5032 24.1858C26.4142 24.2719 26.3089 24.3392 26.1934 24.3837C26.0779 24.4282 25.9547 24.4491 25.831 24.445L0.922974 24.448ZM10.148 22.603H16.606V16.603H10.148V22.603ZM17.99 16.145H21.681V12.454H17.99V16.145ZM5.07397 16.145H8.76498V12.454H5.07397V16.145ZM2.76797 9.687L12.455 4.152V0.793C12.4548 0.688909 12.4752 0.585813 12.515 0.489608C12.5547 0.393402 12.613 0.305975 12.6866 0.232325C12.7601 0.158675 12.8475 0.100247 12.9437 0.0603829C13.0398 0.0205187 13.1429 -8.29721e-08 13.247 0L15.813 0C16.0233 0 16.225 0.083548 16.3737 0.232264C16.5224 0.380981 16.606 0.582683 16.606 0.793V1.975C16.606 2.18532 16.5224 2.38702 16.3737 2.53574C16.225 2.68445 16.0233 2.768 15.813 2.768H14.3V4.152L23.987 9.687H2.76797ZM23.986 4.152C23.986 3.96945 24.0401 3.791 24.1415 3.63921C24.2429 3.48742 24.3871 3.36912 24.5558 3.29926C24.7244 3.2294 24.91 3.21112 25.0891 3.24674C25.2681 3.28235 25.4325 3.37026 25.5616 3.49934C25.6907 3.62842 25.7786 3.79289 25.8142 3.97193C25.8499 4.15098 25.8316 4.33656 25.7617 4.50522C25.6919 4.67387 25.5735 4.81803 25.4218 4.91945C25.27 5.02087 25.0915 5.075 24.909 5.075C24.7878 5.075 24.6677 5.05113 24.5558 5.00474C24.4438 4.95836 24.342 4.89037 24.2563 4.80466C24.1706 4.71895 24.1026 4.6172 24.0562 4.50522C24.0099 4.39323 23.986 4.27321 23.986 4.152ZM20.758 4.152C20.758 3.96945 20.8121 3.791 20.9135 3.63921C21.0149 3.48742 21.1591 3.36912 21.3278 3.29926C21.4964 3.2294 21.682 3.21112 21.861 3.24674C22.0401 3.28235 22.2045 3.37026 22.3336 3.49934C22.4627 3.62842 22.5506 3.79289 22.5862 3.97193C22.6219 4.15098 22.6036 4.33656 22.5337 4.50522C22.4639 4.67387 22.3455 4.81803 22.1938 4.91945C22.042 5.02087 21.8635 5.075 21.681 5.075C21.5597 5.07513 21.4396 5.05135 21.3276 5.00501C21.2156 4.95867 21.1138 4.89069 21.028 4.80495C20.9423 4.71922 20.8743 4.61742 20.828 4.50537C20.7816 4.39333 20.7578 4.27325 20.758 4.152ZM4.15097 0.923C4.15097 0.740405 4.20511 0.561913 4.30658 0.410105C4.40804 0.258297 4.55226 0.139994 4.72098 0.0701639C4.88969 0.000333734 5.07532 -0.0178863 5.25439 0.017809C5.43347 0.0535043 5.59795 0.141511 5.72699 0.270695C5.85603 0.399879 5.94387 0.564435 5.97937 0.743545C6.01487 0.922656 5.99644 1.10827 5.92642 1.27691C5.85641 1.44555 5.73795 1.58963 5.58603 1.69093C5.43411 1.79223 5.25556 1.8462 5.07297 1.846C4.82835 1.84573 4.59384 1.74837 4.42096 1.57531C4.24808 1.40224 4.15097 1.16762 4.15097 0.923ZM0.922974 0.923C0.922974 0.740405 0.977118 0.561913 1.07858 0.410105C1.18005 0.258297 1.32427 0.139994 1.49298 0.0701639C1.6617 0.000333734 1.84733 -0.0178863 2.0264 0.017809C2.20547 0.0535043 2.36995 0.141511 2.49899 0.270695C2.62804 0.399879 2.71584 0.564435 2.75134 0.743545C2.78684 0.922656 2.76844 1.10827 2.69843 1.27691C2.62841 1.44555 2.50995 1.58963 2.35803 1.69093C2.20611 1.79223 2.02757 1.8462 1.84497 1.846C1.60035 1.84573 1.36584 1.74837 1.19296 1.57531C1.02008 1.40224 0.922974 1.16762 0.922974 0.923Z" fill="url(#paint0_linear_1_932)"/>
</g>
<defs>
<linearGradient id="paint0_linear_1_932" x1="13.377" y1="0" x2="13.377" y2="24.4485" gradientUnits="userSpaceOnUse">
<stop stop-color="#9D63FE"/>
<stop offset="1" stop-color="#2A3B95"/>
</linearGradient>
<clipPath id="clip0_1_932">
<rect width="26.753" height="24.448" fill="white"/>
</clipPath>
</defs>
</svg>
