<svg width="34" height="34" viewBox="0 0 34 34" fill="none" xmlns="http://www.w3.org/2000/svg">
<g clip-path="url(#clip0_1_953)">
<path d="M17 34C13.6377 34.0001 10.3508 33.0031 7.55512 31.1351C4.75942 29.2671 2.58043 26.612 1.29371 23.5057C0.00698996 20.3993 -0.329667 16.9811 0.326312 13.6833C0.982291 10.3856 2.60144 7.35648 4.97901 4.97899C8.16718 1.79082 12.4913 -0.000274725 17 -0.000274658C21.5088 -0.000274591 25.8328 1.79082 29.021 4.97899C32.2092 8.16715 34.0003 12.4912 34.0003 17C34.0003 21.5087 32.2092 25.8328 29.021 29.021C27.446 30.6045 25.5726 31.8599 23.5092 32.7146C21.4458 33.5692 19.2334 34.0061 17 34ZM12.639 7.33999C11.2738 7.34131 9.96492 7.88422 8.99958 8.84956C8.03424 9.81489 7.49133 11.1238 7.49001 12.489V21.213C7.4916 22.5778 8.03448 23.8863 8.99958 24.8514C9.96467 25.8165 11.2732 26.3594 12.638 26.361H21.362C22.7269 26.3594 24.0353 25.8165 25.0004 24.8514C25.9655 23.8863 26.5084 22.5778 26.51 21.213V12.489C26.5087 11.1238 25.9658 9.81489 25.0004 8.84956C24.0351 7.88422 22.7262 7.34131 21.361 7.33999H12.639ZM17 20.936C16.1919 20.936 15.4019 20.6963 14.73 20.2474C14.058 19.7984 13.5343 19.1602 13.225 18.4136C12.9158 17.667 12.8349 16.8455 12.9925 16.0528C13.1502 15.2602 13.5393 14.5322 14.1108 13.9607C14.6822 13.3893 15.4103 13.0002 16.2029 12.8425C16.9955 12.6848 17.817 12.7658 18.5637 13.075C19.3103 13.3843 19.9484 13.908 20.3974 14.5799C20.8464 15.2519 21.086 16.0419 21.086 16.85C21.085 17.9333 20.6541 18.972 19.8881 19.7381C19.122 20.5041 18.0834 20.9349 17 20.936ZM22.325 12.876C22.021 12.876 21.7239 12.7858 21.4711 12.617C21.2183 12.4481 21.0213 12.208 20.905 11.9272C20.7887 11.6463 20.7582 11.3373 20.8175 11.0391C20.8769 10.741 21.0232 10.4671 21.2382 10.2522C21.4531 10.0372 21.727 9.89083 22.0252 9.83152C22.3233 9.77221 22.6323 9.80265 22.9132 9.91898C23.194 10.0353 23.4341 10.2323 23.603 10.4851C23.7719 10.7378 23.862 11.035 23.862 11.339C23.8617 11.7465 23.6997 12.1373 23.4115 12.4255C23.1234 12.7137 22.7326 12.8757 22.325 12.876Z" fill="white"/>
</g>
<defs>
<clipPath id="clip0_1_953">
<rect width="34" height="34" fill="white"/>
</clipPath>
</defs>
</svg>
