<svg width="68" height="68" viewBox="0 0 68 68" fill="none" xmlns="http://www.w3.org/2000/svg">
<g clip-path="url(#clip0_1_957)">
<path d="M41.5559 66.111V61.074C41.5559 60.573 41.7551 60.0925 42.1094 59.7383C42.4636 59.384 42.9441 59.185 43.4451 59.185C43.9461 59.185 44.4265 59.384 44.7808 59.7383C45.135 60.0925 45.334 60.573 45.334 61.074V66.111C45.334 66.3592 45.2852 66.6049 45.1902 66.8341C45.0952 67.0634 44.9558 67.2717 44.7803 67.4471C44.6048 67.6225 44.3965 67.7616 44.1672 67.8565C43.9379 67.9514 43.6922 68.0001 43.4441 68C42.9433 67.9997 42.4629 67.8006 42.1089 67.4464C41.7548 67.0921 41.5559 66.6118 41.5559 66.111ZM5.13892 66.606C4.49509 66.454 3.88748 66.1767 3.35083 65.7899C2.81418 65.4031 2.35899 64.9144 2.01123 64.3517C1.66347 63.7889 1.43014 63.1632 1.32422 62.5102C1.2183 61.8573 1.242 61.1898 1.39404 60.546C1.54601 59.9022 1.82316 59.2946 2.20996 58.7579C2.59676 58.2213 3.08571 57.7661 3.64844 57.4183C4.21117 57.0706 4.83676 56.8371 5.48975 56.7311C6.14273 56.6252 6.81029 56.649 7.4541 56.801C8.09793 56.953 8.70529 57.2303 9.24194 57.6171C9.77859 58.0039 10.234 58.4926 10.5818 59.0553C10.9295 59.6181 11.1629 60.2438 11.2688 60.8968C11.3747 61.5497 11.351 62.2172 11.199 62.861C10.9381 63.9649 10.3125 64.9486 9.42334 65.6529C8.53413 66.3572 7.4334 66.7409 6.29907 66.742C5.90845 66.7417 5.51902 66.696 5.13892 66.606ZM7.51294 54.255L12.365 49.404L18.5969 55.636L13.7461 60.487C13.491 58.9262 12.7519 57.4849 11.6335 56.3667C10.5152 55.2485 9.0738 54.5098 7.51294 54.255ZM57.2209 59.891L53.4431 56.113C53.2677 55.9377 53.1284 55.7295 53.0334 55.5003C52.9385 55.2712 52.8896 55.0256 52.8896 54.7775C52.8896 54.5294 52.9385 54.2838 53.0334 54.0547C53.1284 53.8255 53.2677 53.6173 53.4431 53.442C53.6182 53.2664 53.8263 53.1272 54.0554 53.0323C54.2845 52.9374 54.5301 52.8887 54.7781 52.889C55.0261 52.8886 55.2716 52.9373 55.5007 53.0322C55.7298 53.1271 55.938 53.2664 56.113 53.442L59.8911 57.22C60.0666 57.3953 60.2056 57.6035 60.3005 57.8327C60.3955 58.0618 60.4446 58.3074 60.4446 58.5555C60.4446 58.8036 60.3955 59.0492 60.3005 59.2783C60.2056 59.5075 60.0666 59.7157 59.8911 59.891C59.716 60.0666 59.5079 60.2058 59.2788 60.3007C59.0497 60.3956 58.8039 60.4443 58.5559 60.444C58.3078 60.4445 58.062 60.3958 57.8328 60.3009C57.6035 60.206 57.3962 60.0667 57.2209 59.891ZM14.145 47.623L18.5081 43.26L24.74 49.492L20.377 53.855L14.145 47.623ZM14.5901 35.781L18.8899 31.481L36.52 49.111L32.22 53.411L14.5901 35.781ZM61.075 45.334C60.8269 45.334 60.5812 45.2851 60.3521 45.1902C60.1229 45.0953 59.9147 44.9561 59.7393 44.7807C59.5638 44.6053 59.4248 44.3971 59.3298 44.1679C59.2349 43.9387 59.186 43.6931 59.186 43.445C59.1859 43.1969 59.2347 42.9512 59.3296 42.722C59.4245 42.4927 59.5636 42.2844 59.739 42.109C59.9145 41.9335 60.1228 41.7944 60.3521 41.6995C60.5813 41.6046 60.8268 41.5559 61.075 41.556H66.1121C66.6127 41.5563 67.0928 41.7553 67.4468 42.1093C67.8008 42.4633 67.9997 42.9434 68 43.444C68 43.945 67.801 44.4255 67.4468 44.7797C67.0925 45.134 66.6121 45.333 66.1111 45.333L61.075 45.334ZM30.821 39.852L53.5959 17.077C53.7714 16.9017 53.9106 16.6935 54.0056 16.4643C54.1006 16.2352 54.1494 15.9896 54.1494 15.7415C54.1494 15.4934 54.1006 15.2478 54.0056 15.0187C53.9106 14.7895 53.7714 14.5813 53.5959 14.406C53.4206 14.2305 53.2126 14.0913 52.9834 13.9964C52.7542 13.9014 52.5085 13.8525 52.2605 13.8525C52.0124 13.8525 51.7668 13.9014 51.5376 13.9964C51.3084 14.0913 51.1004 14.2305 50.925 14.406L28.1499 37.181L22.9209 31.952L42.821 2.52H62.821L55.9719 9.37C55.7965 9.54533 55.6575 9.75353 55.5625 9.98268C55.4675 10.2118 55.4185 10.4574 55.4185 10.7055C55.4185 10.9536 55.4675 11.1992 55.5625 11.4283C55.6575 11.6575 55.7965 11.8657 55.9719 12.041C56.147 12.2167 56.3551 12.3561 56.5842 12.4512C56.8133 12.5463 57.0588 12.5951 57.3069 12.595C57.5549 12.5951 57.8007 12.5463 58.0298 12.4512C58.2589 12.3561 58.467 12.2167 58.6421 12.041L65.4919 5.191V25.191L36.0601 45.091L30.821 39.852ZM1.88989 26.445C1.64174 26.4451 1.39605 26.3964 1.16675 26.3015C0.937449 26.2066 0.729227 26.0675 0.553711 25.8921C0.378195 25.7167 0.238792 25.5084 0.143799 25.2791C0.0488052 25.0499 -3.47709e-08 24.8042 0 24.556C0 24.055 0.198966 23.5745 0.553223 23.2203C0.907479 22.866 1.38792 22.667 1.88892 22.667H6.92603C7.17409 22.667 7.41974 22.7159 7.64893 22.8108C7.87811 22.9057 8.08631 23.0449 8.26172 23.2203C8.43713 23.3957 8.57621 23.6039 8.67114 23.8331C8.76607 24.0623 8.81494 24.3079 8.81494 24.556C8.81494 24.8041 8.76607 25.0497 8.67114 25.2789C8.57621 25.5081 8.43713 25.7163 8.26172 25.8917C8.08631 26.0671 7.87811 26.2063 7.64893 26.3012C7.41974 26.3961 7.17409 26.445 6.92603 26.445H1.88989ZM11.8899 14.558L8.11206 10.78C7.9366 10.6047 7.79736 10.3965 7.70239 10.1673C7.60743 9.93817 7.55859 9.69255 7.55859 9.4445C7.55859 9.19645 7.60743 8.95083 7.70239 8.72168C7.79736 8.49253 7.9366 8.28434 8.11206 8.109C8.2874 7.93354 8.49546 7.79435 8.72461 7.69938C8.95376 7.60441 9.19946 7.55553 9.44751 7.55553C9.69556 7.55553 9.94126 7.60441 10.1704 7.69938C10.3996 7.79435 10.6076 7.93354 10.783 8.109L14.561 11.887C14.7365 12.0623 14.8757 12.2705 14.9707 12.4997C15.0657 12.7288 15.1145 12.9744 15.1145 13.2225C15.1145 13.4706 15.0657 13.7162 14.9707 13.9453C14.8757 14.1745 14.7365 14.3827 14.561 14.558C14.386 14.7338 14.1778 14.8732 13.9487 14.9683C13.7196 15.0633 13.4741 15.1122 13.2261 15.112C12.9773 15.1125 12.7308 15.0638 12.501 14.9685C12.2711 14.8732 12.0624 14.7334 11.887 14.557L11.8899 14.558ZM22.6699 6.926V1.889C22.6697 1.38844 22.8683 0.90827 23.2219 0.554043C23.5756 0.199815 24.0554 0.000530179 24.5559 0C25.0569 0 25.5376 0.199019 25.8918 0.553275C26.2461 0.907531 26.4451 1.38801 26.4451 1.889V6.926C26.4451 7.42699 26.2461 7.90747 25.8918 8.26172C25.5376 8.61598 25.0569 8.815 24.5559 8.815C24.3078 8.81513 24.0623 8.76636 23.833 8.67148C23.6038 8.57659 23.3954 8.43745 23.22 8.26202C23.0445 8.08658 22.9054 7.87829 22.8105 7.64904C22.7157 7.4198 22.6669 7.1741 22.667 6.926H22.6699Z" fill="url(#paint0_linear_1_957)"/>
</g>
<defs>
<linearGradient id="paint0_linear_1_957" x1="34" y1="0" x2="34" y2="68" gradientUnits="userSpaceOnUse">
<stop stop-color="#9D63FE"/>
<stop offset="1" stop-color="#2A3B95"/>
</linearGradient>
<clipPath id="clip0_1_957">
<rect width="68" height="68" fill="white"/>
</clipPath>
</defs>
</svg>
