<svg width="34" height="34" viewBox="0 0 34 34" fill="none" xmlns="http://www.w3.org/2000/svg">
<g clip-path="url(#clip0_1_938)">
<path d="M17 0C13.6377 0 10.3509 0.997033 7.55531 2.86502C4.75968 4.733 2.58075 7.38804 1.29406 10.4944C0.00736582 13.6007 -0.329291 17.0189 0.326658 20.3165C0.982607 23.6142 2.6017 26.6433 4.97919 29.0208C7.35668 31.3983 10.3858 33.0174 13.6835 33.6734C16.9811 34.3293 20.3993 33.9926 23.5056 32.706C26.612 31.4193 29.267 29.2403 31.135 26.4447C33.003 23.6491 34 20.3623 34 17C34 12.4913 32.2089 8.1673 29.0208 4.97918C25.8327 1.79107 21.5087 0 17 0ZM12.06 25.7H7.92001V13.243H12.06V25.7ZM9.99001 11.542H9.96301C9.66492 11.5637 9.36558 11.5232 9.08395 11.4232C8.80232 11.3231 8.54454 11.1657 8.32695 10.9608C8.10936 10.7559 7.9367 10.508 7.81992 10.2329C7.70313 9.95782 7.64477 9.66145 7.64852 9.3626C7.65227 9.06375 7.71806 8.76893 7.84172 8.49684C7.96538 8.22475 8.14421 7.9813 8.36687 7.78194C8.58954 7.58258 8.85119 7.43164 9.13524 7.3387C9.4193 7.24575 9.71956 7.21283 10.017 7.242C10.316 7.21657 10.617 7.25375 10.9009 7.35117C11.1847 7.44859 11.4451 7.60412 11.6655 7.80781C11.8858 8.01151 12.0613 8.25891 12.1807 8.53422C12.3001 8.80953 12.3608 9.10671 12.3589 9.40679C12.357 9.70687 12.2926 10.0033 12.1698 10.2771C12.0469 10.5508 11.8684 10.796 11.6455 10.9969C11.4226 11.1978 11.1602 11.3501 10.8752 11.4439C10.5901 11.5378 10.2887 11.5712 9.99001 11.542ZM26.99 25.699H22.85V19.035C22.85 17.36 22.25 16.218 20.75 16.218C20.2831 16.2208 19.8285 16.3677 19.4483 16.6387C19.0681 16.9097 18.7809 17.2916 18.626 17.732C18.52 18.0577 18.474 18.3999 18.49 18.742V25.7H14.35C14.35 25.7 14.404 14.412 14.35 13.244H18.49V15.008C18.8647 14.3571 19.4106 13.8214 20.0683 13.4589C20.7261 13.0964 21.4706 12.9211 22.221 12.952C24.945 12.952 26.987 14.732 26.987 18.558L26.99 25.699Z" fill="white"/>
</g>
<defs>
<clipPath id="clip0_1_938">
<rect width="34" height="34" fill="white"/>
</clipPath>
</defs>
</svg>
