<svg width="136" height="27" viewBox="0 0 136 27" fill="none" xmlns="http://www.w3.org/2000/svg">
<g clip-path="url(#clip0_11_4)">
<path d="M53.5741 26.682V6.99998H57.7921V8.32198C58.3185 7.74179 58.9679 7.28665 59.6929 6.98991C60.4179 6.69317 61.2 6.56233 61.9821 6.60698C62.8828 6.5997 63.7744 6.78829 64.5951 7.1597C65.4158 7.53111 66.146 8.07647 66.7351 8.75799C68.0485 10.1949 68.7538 12.0849 68.703 14.031C68.7536 15.977 68.0483 17.867 66.7351 19.304C66.146 19.9855 65.4158 20.5309 64.5951 20.9023C63.7744 21.2737 62.8828 21.4623 61.9821 21.455C61.2 21.4996 60.4179 21.3688 59.6929 21.0721C58.9679 20.7753 58.3185 20.3202 57.7921 19.74V26.682H53.5741ZM58.7351 11.524C58.4149 11.8538 58.1661 12.2459 58.004 12.676C57.842 13.1061 57.7702 13.565 57.7931 14.024C57.7702 14.483 57.842 14.9419 58.004 15.372C58.1661 15.8021 58.415 16.1942 58.7351 16.524C59.052 16.8324 59.4279 17.0735 59.8403 17.233C60.2528 17.3925 60.6931 17.467 61.135 17.452C61.5769 17.4667 62.0173 17.3921 62.4297 17.2327C62.8421 17.0732 63.218 16.8322 63.535 16.524C63.8548 16.194 64.1035 15.8018 64.2655 15.3717C64.4275 14.9417 64.4995 14.483 64.4771 14.024C64.4996 13.565 64.4275 13.1063 64.2655 12.6762C64.1035 12.2462 63.8549 11.854 63.535 11.524C63.218 11.2158 62.8421 10.9748 62.4297 10.8153C62.0173 10.6559 61.5769 10.5813 61.135 10.596C60.6928 10.5816 60.2523 10.6567 59.8398 10.8168C59.4274 10.977 59.0517 11.2189 58.7351 11.528V11.524ZM96.4041 18.105L100.061 16.023C100.205 16.534 100.523 16.9789 100.959 17.2818C101.395 17.5846 101.923 17.7264 102.452 17.683C103.465 17.683 103.971 17.3923 103.97 16.811C103.97 16.5303 103.731 16.297 103.253 16.111C102.687 15.8959 102.11 15.713 101.524 15.563C100.833 15.3802 100.156 15.1462 99.499 14.863C98.8144 14.5652 98.2184 14.0953 97.769 13.499C97.2788 12.8429 97.026 12.0396 97.052 11.221C97.0211 10.5679 97.1497 9.91702 97.4265 9.32467C97.7034 8.73231 98.1202 8.21623 98.6411 7.82098C99.7766 6.99024 101.158 6.56421 102.564 6.61098C103.672 6.59781 104.765 6.86401 105.742 7.38498C106.702 7.90423 107.5 8.6779 108.048 9.62099L104.448 11.561C104.286 11.1952 104.023 10.8838 103.689 10.6642C103.354 10.4445 102.964 10.3261 102.564 10.323C101.777 10.323 101.383 10.5857 101.382 11.111C101.382 11.393 101.621 11.6227 102.099 11.8C102.577 11.9773 103.154 12.1553 103.829 12.334C104.519 12.5174 105.195 12.7476 105.854 13.023C106.548 13.3188 107.146 13.8005 107.583 14.415C108.081 15.126 108.333 15.9805 108.3 16.848C108.338 17.5185 108.202 18.1875 107.907 18.7906C107.611 19.3937 107.166 19.9107 106.613 20.292C105.38 21.1018 103.926 21.5096 102.452 21.459C99.4907 21.4563 97.4744 20.3397 96.4031 18.109L96.4041 18.105ZM72.514 19.342C71.8147 18.6489 71.2654 17.8195 70.9001 16.9051C70.5349 15.9908 70.3617 15.0111 70.3911 14.027C70.3645 13.0475 70.5369 12.0727 70.8978 11.1617C71.2588 10.2507 71.8008 9.42244 72.4911 8.72698C73.1943 8.02151 74.0355 7.46875 74.962 7.10328C75.8886 6.73781 76.8807 6.56749 77.8761 6.60298C78.8276 6.57956 79.7733 6.75656 80.652 7.12249C81.5306 7.48842 82.3225 8.03508 82.9761 8.72698C83.6502 9.43117 84.1775 10.2624 84.5273 11.1723C84.8772 12.0822 85.0427 13.0526 85.014 14.027C85.0178 14.5941 84.9612 15.1599 84.8451 15.715H74.8621C75.3487 17.027 76.4734 17.683 78.2361 17.683C78.7364 17.7094 79.2366 17.6277 79.7025 17.4434C80.1684 17.2591 80.5891 16.9766 80.936 16.615L84.311 18.555C83.6143 19.5138 82.6876 20.2819 81.6162 20.7887C80.5448 21.2954 79.3632 21.5246 78.1801 21.455C77.1415 21.5052 76.1036 21.3443 75.129 20.9819C74.1545 20.6196 73.2635 20.0634 72.51 19.347L72.514 19.342ZM74.7781 12.564H80.8241C80.6852 11.893 80.305 11.2963 79.7556 10.8868C79.2062 10.4773 78.5257 10.2835 77.843 10.342C77.1482 10.2741 76.4525 10.4632 75.8877 10.8736C75.3229 11.284 74.9281 11.8872 74.7781 12.569V12.564ZM39.4281 18.104L43.0851 16.022C43.2292 16.5329 43.5463 16.9778 43.9823 17.2807C44.4183 17.5835 44.946 17.7254 45.4751 17.682C46.4878 17.682 46.9937 17.3913 46.993 16.81C46.993 16.5293 46.754 16.296 46.276 16.11C45.7105 15.8948 45.1333 15.7119 44.5471 15.562C43.8557 15.3792 43.1788 15.1452 42.5221 14.862C41.8374 14.5642 41.2415 14.0943 40.7921 13.498C40.302 12.8418 40.0491 12.0386 40.0751 11.22C40.044 10.5669 40.1724 9.91594 40.4492 9.32356C40.7261 8.73117 41.1431 8.21511 41.6641 7.81998C42.7996 6.98931 44.1809 6.56328 45.587 6.60998C46.6946 6.59676 47.7876 6.86297 48.765 7.38398C49.7246 7.90323 50.5225 8.67689 51.071 9.61998L47.4711 11.56C47.3096 11.1941 47.046 10.8826 46.7118 10.663C46.3776 10.4434 45.9869 10.325 45.587 10.322C44.7997 10.322 44.4057 10.5847 44.405 11.11C44.405 11.392 44.6441 11.6217 45.1221 11.799C45.6001 11.9763 46.1767 12.1543 46.8521 12.333C47.5419 12.5164 48.2185 12.7466 48.8771 13.022C49.5707 13.3178 50.169 13.7995 50.6061 14.414C51.1042 15.125 51.356 15.9795 51.323 16.847C51.3605 17.5175 51.2251 18.1864 50.9297 18.7895C50.6343 19.3926 50.1889 19.9096 49.6361 20.291C48.4027 21.1007 46.9486 21.5084 45.474 21.458C42.512 21.456 40.4968 20.3397 39.4281 18.109V18.104ZM24.2991 19.304C22.9852 17.8673 22.2794 15.9772 22.3301 14.031C22.2792 12.0847 22.985 10.1946 24.2991 8.75799C24.8878 8.07634 25.6178 7.53088 26.4384 7.15945C27.2589 6.78802 28.1504 6.59951 29.051 6.60698C29.8331 6.56233 30.6153 6.69317 31.3403 6.98991C32.0653 7.28665 32.7148 7.74179 33.2411 8.32198V6.99998H37.4591V21.062H33.2411V19.74C32.7148 20.3202 32.0653 20.7753 31.3403 21.0721C30.6153 21.3688 29.8331 21.4996 29.051 21.455C28.1504 21.4625 27.2589 21.274 26.4384 20.9025C25.6178 20.5311 24.8878 19.9857 24.2991 19.304ZM27.4761 11.528C27.16 11.8601 26.9148 12.2529 26.7552 12.6827C26.5957 13.1124 26.5253 13.5702 26.5481 14.028C26.5253 14.4858 26.5958 14.9435 26.7554 15.3733C26.9149 15.8031 27.1601 16.1959 27.4761 16.528C27.7949 16.8391 28.1739 17.0819 28.5898 17.2415C29.0058 17.401 29.4499 17.474 29.895 17.456C30.34 17.474 30.7841 17.401 31.1998 17.2414C31.6156 17.0819 31.9944 16.8391 32.3131 16.528C32.6291 16.1959 32.8742 15.803 33.0337 15.3733C33.1932 14.9435 33.2638 14.4858 33.2411 14.028C33.2639 13.5702 33.1933 13.1124 33.0338 12.6827C32.8743 12.2529 32.6292 11.8601 32.3131 11.528C31.9944 11.2169 31.6156 10.9741 31.1998 10.8146C30.7841 10.655 30.34 10.582 29.895 10.6C29.4499 10.582 29.0058 10.655 28.5898 10.8145C28.1739 10.9741 27.7949 11.2169 27.4761 11.528ZM3.33301 18.502C2.35298 17.5689 1.57809 16.4419 1.05762 15.1928C0.537145 13.9437 0.282555 12.5999 0.310057 11.247C0.284048 9.89205 0.53689 8.54625 1.05298 7.29319C1.56906 6.04013 2.33737 4.90658 3.31006 3.96298C4.26335 2.99389 5.40442 2.22965 6.66345 1.71706C7.92248 1.20447 9.27298 0.954341 10.6321 0.981985C12.3921 0.963576 14.1283 1.38937 15.6801 2.21998C17.1321 2.97535 18.3591 4.10058 19.2371 5.48198L15.4131 7.67498C14.9328 6.95751 14.2668 6.38379 13.4861 6.01498C12.5899 5.57417 11.6016 5.35275 10.603 5.36898C9.83479 5.34606 9.07007 5.48152 8.35644 5.76693C7.64282 6.05235 6.99562 6.4816 6.45508 7.02798C5.90759 7.58761 5.47942 8.25262 5.19665 8.98267C4.91388 9.71271 4.78239 10.4926 4.81006 11.275C4.78247 12.0506 4.91852 12.8233 5.20935 13.5428C5.50018 14.2623 5.93927 14.9124 6.49805 15.451C7.10467 16.0036 7.81455 16.4309 8.58679 16.7084C9.35904 16.9859 10.1784 17.1081 10.998 17.068C13.6034 17.068 15.2814 16.0553 16.0321 14.03H10.7731V10.094H20.644V11.782C20.7053 13.0828 20.4929 14.3819 20.0206 15.5954C19.5483 16.809 18.8266 17.9099 17.9021 18.827C16.9736 19.7042 15.8801 20.3883 14.6852 20.8396C13.4902 21.2909 12.2176 21.5005 10.941 21.456C9.53956 21.4994 8.14375 21.2603 6.83667 20.7527C5.52959 20.2452 4.33797 19.4798 3.33301 18.502ZM117.214 19.247C116.519 18.5709 115.97 17.7588 115.603 16.8614C115.235 15.964 115.056 15.0006 115.077 14.031C115.056 13.0615 115.235 12.098 115.603 11.2007C115.971 10.3033 116.519 9.49122 117.214 8.81498C117.882 8.12951 118.683 7.58759 119.568 7.22238C120.453 6.85716 121.403 6.67634 122.36 6.69098C123.613 6.67043 124.847 6.99123 125.931 7.61898C126.976 8.23111 127.833 9.11745 128.41 10.182V6.99998H129.845V21.062H128.41V17.882C127.834 18.9448 126.978 19.8298 125.935 20.441C124.851 21.0691 123.617 21.3903 122.364 21.37C121.406 21.386 120.454 21.206 119.568 20.8411C118.682 20.4762 117.879 19.9341 117.21 19.248L117.214 19.247ZM118.24 9.78399C117.678 10.337 117.235 10.9988 116.938 11.7288C116.64 12.4588 116.495 13.2418 116.51 14.03C116.495 14.8182 116.64 15.6012 116.938 16.3312C117.235 17.0612 117.678 17.723 118.24 18.276C118.788 18.842 119.446 19.289 120.175 19.589C120.903 19.8891 121.685 20.0358 122.473 20.02C123.258 20.0365 124.039 19.89 124.765 19.5898C125.491 19.2897 126.147 18.8423 126.691 18.276C127.249 17.7207 127.688 17.0582 127.983 16.3285C128.278 15.5987 128.422 14.8169 128.406 14.03C128.422 13.2431 128.278 12.4613 127.983 11.7315C127.688 11.0018 127.249 10.3393 126.691 9.78399C126.147 9.21768 125.491 8.77033 124.765 8.47017C124.039 8.17 123.258 8.02353 122.473 8.03998C121.686 8.02404 120.904 8.1705 120.176 8.47022C119.448 8.76993 118.789 9.21647 118.241 9.78198L118.24 9.78399ZM111.11 20.982C110.991 20.8649 110.897 20.7247 110.834 20.5699C110.771 20.415 110.741 20.249 110.745 20.082C110.741 19.915 110.772 19.749 110.834 19.5942C110.897 19.4395 110.991 19.2992 111.11 19.182C111.227 19.063 111.368 18.9693 111.522 18.9065C111.677 18.8437 111.843 18.8133 112.01 18.817C112.177 18.8134 112.343 18.8439 112.498 18.9067C112.652 18.9694 112.793 19.0631 112.91 19.182C113.029 19.2993 113.123 19.4396 113.185 19.5944C113.248 19.7491 113.279 19.915 113.275 20.082C113.279 20.249 113.248 20.415 113.186 20.5698C113.123 20.7245 113.029 20.8648 112.91 20.982C112.793 21.1009 112.652 21.1946 112.498 21.2573C112.343 21.3201 112.177 21.3506 112.01 21.347C111.843 21.3507 111.677 21.3203 111.522 21.2575C111.368 21.1947 111.227 21.101 111.11 20.982ZM134.171 21.067V6.99998H135.577V21.062L134.171 21.067ZM87.4031 21.067V6.99998H91.6211V9.49998C91.8603 8.62981 92.4307 7.88786 93.2101 7.43298C94.0038 6.95608 94.9141 6.70826 95.8401 6.71698V11.498C94.8478 11.3217 93.8252 11.5061 92.957 12.018C92.506 12.2966 92.1419 12.6957 91.9058 13.1704C91.6697 13.645 91.5711 14.1762 91.6211 14.704V21.062L87.4031 21.067ZM134.086 3.27898C133.977 3.1769 133.89 3.05289 133.832 2.91504C133.773 2.77718 133.745 2.6286 133.748 2.47898C133.747 2.33361 133.776 2.18963 133.835 2.05644C133.893 1.92324 133.979 1.80383 134.086 1.70598C134.189 1.60241 134.312 1.52041 134.447 1.46478C134.582 1.40915 134.727 1.381 134.873 1.38198C135.019 1.38134 135.164 1.40964 135.299 1.46525C135.434 1.52086 135.557 1.60268 135.66 1.70598C135.767 1.80392 135.853 1.92337 135.911 2.05656C135.969 2.18976 135.998 2.33369 135.997 2.47898C136 2.62852 135.972 2.77706 135.914 2.91491C135.856 3.05276 135.769 3.17681 135.66 3.27898C135.557 3.38237 135.434 3.46418 135.299 3.51964C135.164 3.5751 135.019 3.60309 134.873 3.60198C134.727 3.60217 134.582 3.57326 134.448 3.51694C134.313 3.46063 134.191 3.37803 134.088 3.27398L134.086 3.27898Z" fill="white"/>
</g>
<defs>
<clipPath id="clip0_11_4">
<rect width="136" height="27" fill="white"/>
</clipPath>
</defs>
</svg>
