<svg width="27" height="28" viewBox="0 0 27 28" fill="none" xmlns="http://www.w3.org/2000/svg">
<g clip-path="url(#clip0_1_936)">
<path d="M1.92096 27.269C3.56132 25.3183 4.84743 23.0954 5.72098 20.701C5.81653 20.4564 5.89832 20.2067 5.96597 19.953C6.35197 18.525 7.73397 13.43 8.27997 11.737C8.37514 11.4154 8.5909 11.1431 8.88217 10.9768C9.17344 10.8106 9.51768 10.7634 9.84296 10.845C10.056 10.8986 10.2515 11.0068 10.4102 11.1588C10.5689 11.3108 10.6852 11.5014 10.748 11.712C10.8183 11.951 10.82 12.205 10.753 12.445C10.753 12.445 9.77298 15.688 9.77298 16.139C9.77298 17.293 10.802 17.493 10.802 19.551C10.7397 20.199 10.5778 20.8334 10.322 21.432C10.2999 21.4881 10.2884 21.5477 10.288 21.608C10.2878 21.6756 10.301 21.7425 10.3268 21.805C10.3526 21.8675 10.3904 21.9243 10.4382 21.9721C10.4859 22.0199 10.5426 22.0579 10.605 22.0838C10.6675 22.1097 10.7344 22.123 10.802 22.123H15.702C15.361 23.505 13.251 25.007 10.973 25.607C10.6293 25.7005 10.3302 25.9132 10.129 26.207L9.39297 27.266L1.92096 27.269ZM11.536 21.094C11.7121 20.5974 11.8132 20.0774 11.836 19.551C11.8656 18.5754 11.5977 17.6138 11.068 16.794C10.874 16.465 10.806 16.341 10.804 16.187C10.84 15.858 11.319 14.143 11.746 12.726C11.8056 12.5172 11.8356 12.3011 11.835 12.084C11.832 11.6376 11.7072 11.2006 11.474 10.82C11.2649 10.4808 10.9639 10.2079 10.606 10.033C10.2758 9.86655 9.91172 9.77827 9.54196 9.775C9.0741 9.7755 8.61737 9.91775 8.23196 10.183V3.083C8.23302 2.26497 8.55873 1.48081 9.13754 0.902747C9.71635 0.324687 10.5009 -6.8673e-07 11.319 0L26.754 0V1.544H11.374C11.1235 1.53856 10.8792 1.62131 10.6836 1.77778C10.488 1.93425 10.3536 2.15449 10.304 2.4C10.2794 2.5475 10.2873 2.69856 10.327 2.84271C10.3667 2.98687 10.4373 3.12066 10.5338 3.23482C10.6304 3.34898 10.7506 3.44077 10.8862 3.50383C11.0218 3.56689 11.1695 3.5997 11.319 3.6H26.754V21.094H11.536ZM12.863 14.663C12.863 15.658 14.937 16.463 17.493 16.463C20.049 16.463 22.124 15.657 22.124 14.663C22.124 13.952 21.064 13.34 19.524 13.047C19.1343 11.2855 18.5591 9.57027 17.808 7.93C17.7819 7.86733 17.7377 7.8138 17.6812 7.77615C17.6247 7.73849 17.5584 7.7184 17.4905 7.7184C17.4226 7.7184 17.3562 7.73849 17.2997 7.77615C17.2432 7.8138 17.1991 7.86733 17.173 7.93C16.596 9.283 15.432 12.158 15.432 13.377C15.432 13.946 15.84 14.407 16.975 14.407C17.4269 14.354 17.8621 14.2043 18.251 13.968C18.3088 13.9332 18.373 13.9101 18.4397 13.9001C18.5065 13.8901 18.5746 13.8933 18.6401 13.9096C18.7056 13.9259 18.7672 13.955 18.8215 13.9951C18.8758 14.0352 18.9217 14.0857 18.9565 14.1435C18.9913 14.2013 19.0143 14.2655 19.0244 14.3322C19.0344 14.399 19.0311 14.4671 19.0148 14.5326C18.9985 14.5981 18.9695 14.6598 18.9294 14.7141C18.8893 14.7683 18.8388 14.8142 18.781 14.849C18.2344 15.1859 17.6152 15.3872 16.975 15.436C15.087 15.436 14.41 14.415 14.404 13.325C13.461 13.653 12.862 14.131 12.862 14.664L12.863 14.663ZM22.639 9.518C22.639 9.67073 22.6843 9.82003 22.7691 9.947C22.854 10.074 22.9747 10.1729 23.1158 10.2313C23.2569 10.2897 23.4122 10.305 23.562 10.2751C23.7117 10.2452 23.8493 10.1716 23.9572 10.0635C24.0651 9.95547 24.1386 9.81781 24.1682 9.668C24.1979 9.51818 24.1825 9.36292 24.1239 9.22188C24.0653 9.08083 23.9662 8.96033 23.8391 8.87562C23.7121 8.79091 23.5627 8.7458 23.41 8.746C23.3086 8.746 23.2082 8.76597 23.1145 8.80476C23.0209 8.84356 22.9358 8.90043 22.8641 8.97211C22.7924 9.0438 22.7355 9.12891 22.6967 9.22257C22.6579 9.31623 22.638 9.41662 22.638 9.518H22.639ZM22.639 6.431C22.639 6.58373 22.6843 6.73303 22.7691 6.86C22.854 6.98698 22.9747 7.08593 23.1158 7.14433C23.2569 7.20273 23.4122 7.21796 23.562 7.18809C23.7117 7.15822 23.8493 7.0846 23.9572 6.97653C24.0651 6.86847 24.1386 6.73082 24.1682 6.581C24.1979 6.43118 24.1825 6.27592 24.1239 6.13487C24.0653 5.99383 23.9662 5.87333 23.8391 5.78862C23.7121 5.70391 23.5627 5.6588 23.41 5.659C23.3086 5.659 23.2082 5.67897 23.1145 5.71776C23.0209 5.75656 22.9358 5.81343 22.8641 5.88511C22.7924 5.9568 22.7355 6.04191 22.6967 6.13557C22.6579 6.22923 22.638 6.32962 22.638 6.431H22.639ZM2.05896 13.891C2.05862 13.7559 2.08496 13.622 2.13644 13.4971C2.18792 13.3722 2.26354 13.2586 2.35898 13.163L3.90097 11.62C4.09405 11.4271 4.35586 11.3187 4.62881 11.3188C4.90177 11.3189 5.16353 11.4274 5.35648 11.6205C5.54942 11.8136 5.65775 12.0754 5.65765 12.3484C5.65756 12.6213 5.54903 12.8831 5.35596 13.076L3.81396 14.618C3.67017 14.7623 3.48674 14.8608 3.28696 14.9008C3.08717 14.9408 2.88003 14.9205 2.69174 14.8427C2.50346 14.7648 2.34252 14.6328 2.22934 14.4634C2.11616 14.294 2.05582 14.0948 2.05597 13.891H2.05896ZM1.02997 9.261C0.757061 9.261 0.495343 9.15259 0.302368 8.95961C0.109393 8.76664 0.000976563 8.50491 0.000976562 8.232C0.000976563 7.95909 0.109393 7.69736 0.302368 7.50439C0.495343 7.31141 0.757061 7.203 1.02997 7.203H3.08798C3.36089 7.203 3.62261 7.31141 3.81558 7.50439C4.00856 7.69736 4.11697 7.95909 4.11697 8.232C4.11697 8.50491 4.00856 8.76664 3.81558 8.95961C3.62261 9.15259 3.36089 9.261 3.08798 9.261H1.02997ZM3.89996 4.843L2.35995 3.3C2.26164 3.20509 2.18323 3.09154 2.12927 2.96599C2.07531 2.84044 2.04689 2.7054 2.04568 2.56875C2.04448 2.4321 2.07051 2.29658 2.12225 2.17009C2.17399 2.04361 2.25042 1.9287 2.34705 1.83207C2.44368 1.73544 2.55858 1.65903 2.68506 1.60729C2.81154 1.55555 2.94706 1.52952 3.08371 1.53072C3.22036 1.53193 3.35541 1.56034 3.48096 1.6143C3.60651 1.66826 3.72006 1.74668 3.81497 1.845L5.35696 3.387C5.45257 3.48267 5.52839 3.59623 5.58011 3.7212C5.63182 3.84617 5.6584 3.98011 5.65836 4.11535C5.65831 4.2506 5.63163 4.38452 5.57983 4.50945C5.52803 4.63439 5.45214 4.7479 5.35648 4.8435C5.26081 4.9391 5.14725 5.01493 5.02228 5.06664C4.89731 5.11835 4.76336 5.14495 4.62811 5.1449C4.49286 5.14486 4.35894 5.11817 4.23401 5.06637C4.10907 5.01457 3.99557 4.93867 3.89996 4.843Z" fill="url(#paint0_linear_1_936)"/>
</g>
<defs>
<linearGradient id="paint0_linear_1_936" x1="13.3775" y1="0" x2="13.3775" y2="27.269" gradientUnits="userSpaceOnUse">
<stop stop-color="#9D63FE"/>
<stop offset="1" stop-color="#7B41DC"/>
</linearGradient>
<clipPath id="clip0_1_936">
<rect width="26.753" height="27.269" fill="white"/>
</clipPath>
</defs>
</svg>
