<svg width="43" height="41" viewBox="0 0 43 41" fill="none" xmlns="http://www.w3.org/2000/svg">
<g clip-path="url(#clip0_1_955)">
<path d="M23.156 40.814L20.6751 39.181C16.9201 39.181 15.266 37.818 15.266 37.818L11.7271 35.762C13.3723 35.3804 14.8906 34.579 16.134 33.436C16.322 33.405 17.2251 33.136 17.3661 33.093C17.4603 33.9371 17.8063 34.7333 18.3591 35.3781C18.912 36.0228 19.6462 36.4862 20.4661 36.708C20.5338 36.7247 20.6032 36.7331 20.673 36.733C20.7809 36.7338 20.888 36.7133 20.9879 36.6727C21.0879 36.6321 21.1789 36.5722 21.2557 36.4964C21.3326 36.4207 21.3936 36.3305 21.4356 36.2311C21.4775 36.1316 21.4994 36.0249 21.5 35.917C21.4996 35.7348 21.4385 35.5579 21.3262 35.4145C21.2139 35.271 21.0568 35.1691 20.88 35.125C20.3445 34.9688 19.874 34.6435 19.5386 34.1978C19.2032 33.7521 19.0209 33.2098 19.0191 32.652V30.644C19.0191 30.644 16.9951 31.489 16.2321 31.744C16.0647 31.802 15.8891 31.8324 15.712 31.834C15.2765 31.8356 14.858 31.6648 14.5481 31.3588C14.2382 31.0528 14.062 30.6365 14.058 30.201C14.0616 29.8576 14.173 29.524 14.3762 29.2472C14.5795 28.9704 14.8645 28.7643 15.1911 28.658C16.6711 28.168 18.6801 27.507 20.1531 27.025C20.3214 26.9698 20.497 26.9394 20.6741 26.935C20.9987 26.9351 21.3162 27.0297 21.5879 27.2073C21.8596 27.3849 22.0736 27.6377 22.204 27.935C22.369 28.335 23.146 30.344 23.604 31.265C25.634 35.379 33.0811 40.808 33.0811 40.808L23.156 40.814ZM-0.00096449 37.956C-0.000679891 37.5724 0.0779332 37.1928 0.230115 36.8407C0.382296 36.4885 0.604848 36.1711 0.884045 35.908C1.40505 35.401 2.97706 33.891 5.12806 31.843C5.69906 34.49 7.53698 35.216 9.02199 36.079C6.69799 38.291 5.12206 39.801 4.90406 40.006C4.364 40.5255 3.64342 40.8152 2.89406 40.814C2.13187 40.8177 1.39926 40.5191 0.856946 39.9835C0.31463 39.4479 0.00680384 38.7192 0.000988636 37.957L-0.00096449 37.956ZM31.4251 36.732C31.4264 36.5162 31.4701 36.3027 31.554 36.1038C31.6378 35.9049 31.7601 35.7245 31.9137 35.5728C32.0673 35.4212 32.2493 35.3013 32.4492 35.22C32.6492 35.1387 32.8631 35.0976 33.079 35.099C33.2948 35.0976 33.5089 35.1387 33.7089 35.22C33.9088 35.3013 34.0908 35.4212 34.2444 35.5728C34.398 35.7245 34.5202 35.9049 34.604 36.1038C34.6879 36.3027 34.7317 36.5162 34.733 36.732C34.7317 36.9479 34.6879 37.1613 34.604 37.3602C34.5202 37.5591 34.398 37.7396 34.2444 37.8912C34.0908 38.0429 33.9088 38.1628 33.7089 38.2441C33.5089 38.3254 33.2948 38.3665 33.079 38.365C32.6438 38.3671 32.2256 38.1965 31.916 37.8905C31.6065 37.5845 31.4309 37.1682 31.428 36.733L31.4251 36.732ZM35.5601 32.65C35.5614 32.4342 35.6051 32.2207 35.689 32.0218C35.7728 31.8229 35.8951 31.6425 36.0487 31.4908C36.2023 31.3391 36.3843 31.2193 36.5842 31.138C36.7842 31.0567 36.9982 31.0156 37.214 31.017C37.4298 31.0157 37.6437 31.0569 37.8435 31.1382C38.0434 31.2196 38.2253 31.3395 38.3788 31.4912C38.5323 31.6428 38.6544 31.8232 38.7382 32.022C38.822 32.2209 38.8658 32.4343 38.8671 32.65C38.8658 32.8658 38.822 33.0792 38.7382 33.278C38.6544 33.4768 38.5323 33.6572 38.3788 33.8089C38.2253 33.9605 38.0434 34.0804 37.8435 34.1618C37.6437 34.2431 37.4298 34.2843 37.214 34.283C36.7788 34.2851 36.3605 34.1145 36.0509 33.8085C35.7414 33.5025 35.5659 33.0862 35.563 32.651L35.5601 32.65ZM6.615 30.389C6.615 26.372 10.741 22.014 14.546 22.038C15.0473 22.0236 15.5461 22.1154 16.0094 22.3073C16.4728 22.4991 16.8903 22.7868 17.2346 23.1514C17.579 23.5159 17.8424 23.9492 18.0076 24.4227C18.1728 24.8963 18.2359 25.3993 18.193 25.899V25.949L14.661 27.108C14.0076 27.3212 13.438 27.7347 13.0328 28.2899C12.6277 28.8451 12.4078 29.5137 12.4041 30.201C12.4041 30.7681 12.5531 31.3253 12.8362 31.8167C13.1193 32.3081 13.5265 32.7165 14.0171 33.001C12.9204 33.7915 11.6132 34.2378 10.2621 34.283C9.7585 34.296 9.25782 34.2022 8.7931 34.0077C8.32838 33.8133 7.91007 33.5226 7.56581 33.1548C7.22155 32.787 6.95915 32.3505 6.79579 31.8739C6.63242 31.3974 6.57185 30.8917 6.61805 30.39L6.615 30.389ZM38.8671 26.936C38.8684 26.7202 38.9121 26.5067 38.996 26.3078C39.0798 26.1089 39.2021 25.9285 39.3557 25.7768C39.5093 25.6252 39.6913 25.5053 39.8912 25.424C40.0912 25.3427 40.3052 25.3016 40.521 25.303C40.7369 25.3016 40.9509 25.3427 41.1509 25.424C41.3508 25.5053 41.5328 25.6252 41.6864 25.7768C41.84 25.9285 41.9622 26.1089 42.046 26.3078C42.1299 26.5067 42.1738 26.7202 42.1751 26.936C42.1738 27.1519 42.1299 27.3653 42.046 27.5642C41.9622 27.7631 41.84 27.9436 41.6864 28.0952C41.5328 28.2469 41.3508 28.3668 41.1509 28.4481C40.9509 28.5294 40.7369 28.5705 40.521 28.569C40.0859 28.5709 39.668 28.4001 39.3587 28.0942C39.0493 27.7882 38.8739 27.3721 38.871 26.937L38.8671 26.936ZM0.825085 26.936C0.826394 26.7202 0.870149 26.5067 0.953992 26.3078C1.03783 26.1089 1.16013 25.9285 1.31373 25.7768C1.46733 25.6252 1.6493 25.5053 1.84926 25.424C2.04921 25.3427 2.26317 25.3016 2.47902 25.303C2.69486 25.3016 2.90894 25.3427 3.1089 25.424C3.30886 25.5053 3.49082 25.6252 3.64442 25.7768C3.79802 25.9285 3.9202 26.1089 4.00404 26.3078C4.08788 26.5067 4.13176 26.7202 4.13307 26.936C4.13176 27.1519 4.08788 27.3653 4.00404 27.5642C3.9202 27.7631 3.79802 27.9436 3.64442 28.0952C3.49082 28.2469 3.30886 28.3668 3.1089 28.4481C2.90894 28.5294 2.69486 28.5705 2.47902 28.569C2.04378 28.5711 1.62547 28.4005 1.31593 28.0945C1.00639 27.7885 0.830924 27.3722 0.828015 26.937L0.825085 26.936ZM16.6541 20.814C18.1921 19.336 19.698 17.9 21.078 16.578L24.692 17.565L25.6431 20.202C23.9731 21.802 22.1431 23.548 20.2841 25.327C20.1268 25.347 19.9716 25.3804 19.8201 25.427C19.7923 24.4354 19.4789 23.4728 18.9177 22.6547C18.3565 21.8367 17.5712 21.1979 16.656 20.815L16.6541 20.814ZM25.964 16.214L17.364 13.875L24.457 8.64701L23.985 1.33898e-05L31.452 4.92701L40.5241 1.63301L37.292 10.407L43.005 17.142H33.905L28.943 24.489L25.964 16.214ZM0.120007 21.038C0.0379537 20.8379 -0.0038682 20.6236 -0.00303968 20.4073C-0.00221117 20.191 0.0413058 19.977 0.12489 19.7775C0.208474 19.578 0.330544 19.3969 0.484143 19.2447C0.637742 19.0924 0.81983 18.9719 1.02003 18.89C1.42405 18.7215 1.87838 18.7199 2.28358 18.8855C2.68878 19.0512 3.01183 19.3707 3.18202 19.774C3.26419 19.974 3.30609 20.1883 3.30531 20.4046C3.30453 20.6208 3.26111 20.8348 3.1775 21.0343C3.0939 21.2337 2.97179 21.4147 2.81813 21.5668C2.66447 21.719 2.48224 21.8394 2.28199 21.921C2.08004 22.0047 1.86364 22.0479 1.64503 22.048C1.32044 22.0483 1.00299 21.9527 0.732556 21.7732C0.462124 21.5937 0.250749 21.3383 0.125012 21.039L0.120007 21.038ZM40.72 21.921C40.5197 21.8394 40.3376 21.719 40.184 21.5668C40.0303 21.4147 39.9082 21.2337 39.8246 21.0343C39.741 20.8348 39.6976 20.6208 39.6968 20.4046C39.696 20.1883 39.7379 19.974 39.8201 19.774C39.9901 19.3708 40.3129 19.0513 40.7179 18.8856C41.1229 18.7199 41.5772 18.7215 41.9811 18.89C42.1813 18.9717 42.3634 19.092 42.5171 19.2442C42.6708 19.3963 42.7929 19.5773 42.8765 19.7768C42.9601 19.9762 43.0035 20.1902 43.0043 20.4064C43.0051 20.6227 42.9632 20.837 42.881 21.037C42.7554 21.3373 42.5436 21.5937 42.2724 21.7737C42.0011 21.9536 41.6826 22.0491 41.3571 22.048C41.1392 22.0479 40.9235 22.0051 40.7221 21.922L40.72 21.921ZM1.65406 13.876C1.65537 13.6602 1.69913 13.4467 1.78297 13.2478C1.86681 13.0489 1.98911 12.8685 2.14271 12.7168C2.29631 12.5651 2.47828 12.4453 2.67823 12.364C2.87819 12.2827 3.09215 12.2416 3.308 12.243C3.52384 12.2416 3.73792 12.2827 3.93788 12.364C4.13784 12.4453 4.3198 12.5651 4.4734 12.7168C4.627 12.8685 4.74918 13.0489 4.83302 13.2478C4.91686 13.4467 4.96074 13.6602 4.96205 13.876C4.96061 14.0918 4.91668 14.3051 4.83278 14.5039C4.74887 14.7027 4.62662 14.883 4.47303 15.0346C4.31945 15.1861 4.13753 15.3059 3.93763 15.3872C3.73774 15.4684 3.52376 15.5095 3.308 15.508C2.87276 15.5104 2.45439 15.34 2.14467 15.0342C1.83494 14.7284 1.65919 14.3122 1.65602 13.877L1.65406 13.876ZM5.41102 10.576C5.20032 10.5277 5.00121 10.4383 4.82509 10.3129C4.64896 10.1876 4.49935 10.0287 4.38466 9.84549C4.26996 9.66225 4.19241 9.4582 4.15663 9.24501C4.12084 9.03182 4.12746 8.81366 4.17604 8.60301C4.27956 8.17856 4.54724 7.81249 4.9203 7.58509C5.29336 7.3577 5.74132 7.28754 6.16603 7.39001C6.37682 7.43801 6.57608 7.52716 6.75233 7.65234C6.92858 7.77753 7.07838 7.93629 7.19313 8.11951C7.30787 8.30273 7.38535 8.50681 7.42103 8.72003C7.45671 8.93325 7.44986 9.15142 7.40101 9.36201C7.31452 9.7211 7.10961 10.0406 6.81935 10.269C6.52908 10.4974 6.17039 10.6214 5.80104 10.621C5.67024 10.6198 5.54009 10.6034 5.4131 10.572L5.41102 10.576ZM8.26906 4.90201C8.27036 4.68617 8.31412 4.47269 8.39796 4.27379C8.4818 4.07489 8.6041 3.89445 8.7577 3.7428C8.91131 3.59115 9.09327 3.47125 9.29323 3.38996C9.49318 3.30866 9.70714 3.26756 9.92299 3.26901C10.1388 3.26756 10.3529 3.30866 10.5529 3.38996C10.7528 3.47125 10.9348 3.59115 11.0884 3.7428C11.242 3.89445 11.3642 4.07489 11.448 4.27379C11.5319 4.47269 11.5757 4.68617 11.577 4.90201C11.5757 5.11786 11.5319 5.33134 11.448 5.53024C11.3642 5.72914 11.242 5.90957 11.0884 6.06123C10.9348 6.21288 10.7528 6.33278 10.5529 6.41407C10.3529 6.49537 10.1388 6.53646 9.92299 6.53501C9.70714 6.5362 9.4932 6.49484 9.29335 6.4133C9.09349 6.33176 8.91173 6.21164 8.75831 6.05981C8.6049 5.90797 8.48291 5.72739 8.3993 5.52839C8.3157 5.32939 8.27206 5.11586 8.27101 4.90001L8.26906 4.90201ZM13.2321 2.45301C13.2334 2.23717 13.2771 2.02369 13.361 1.82479C13.4448 1.62589 13.5671 1.44545 13.7207 1.2938C13.8743 1.14215 14.0563 1.02225 14.2562 0.940956C14.4562 0.859661 14.6702 0.818564 14.886 0.820013C15.1018 0.818696 15.3157 0.859891 15.5155 0.941244C15.7154 1.0226 15.8973 1.14252 16.0508 1.29416C16.2043 1.4458 16.3264 1.62618 16.4102 1.82502C16.4939 2.02386 16.5378 2.23725 16.5391 2.45301C16.5378 2.66878 16.4939 2.88217 16.4102 3.08101C16.3264 3.27984 16.2043 3.46023 16.0508 3.61187C15.8973 3.76351 15.7154 3.88343 15.5155 3.96478C15.3157 4.04614 15.1018 4.08733 14.886 4.08601C14.67 4.0872 14.4559 4.04577 14.2559 3.96411C14.0559 3.88245 13.874 3.76215 13.7206 3.6101C13.5672 3.45805 13.4452 3.27724 13.3617 3.078C13.2782 2.87877 13.2348 2.66503 13.234 2.44901L13.2321 2.45301ZM19.021 1.63701C19.0219 1.4207 19.0655 1.20669 19.1493 1.00725C19.2331 0.807815 19.3554 0.626873 19.5093 0.474798C19.6631 0.322723 19.8454 0.202503 20.0458 0.12103C20.2462 0.0395571 20.4607 -0.00156752 20.677 1.33898e-05C20.8929 -0.00143572 21.1069 0.0396612 21.3069 0.120956C21.5069 0.202251 21.6888 0.322149 21.8424 0.473801C21.996 0.625453 22.1182 0.805886 22.202 1.00479C22.2859 1.20369 22.3298 1.41717 22.3311 1.63301C22.3298 1.84886 22.2859 2.06234 22.202 2.26124C22.1182 2.46014 21.996 2.64057 21.8424 2.79223C21.6888 2.94388 21.5069 3.06378 21.3069 3.14507C21.1069 3.22637 20.8929 3.26746 20.677 3.26601C20.2412 3.26867 19.8221 3.09815 19.512 2.79193C19.2018 2.48571 19.026 2.06886 19.0231 1.63301L19.021 1.63701Z" fill="white"/>
</g>
<defs>
<clipPath id="clip0_1_955">
<rect width="43.008" height="40.814" fill="white"/>
</clipPath>
</defs>
</svg>
