<svg width="36" height="42" viewBox="0 0 36 42" fill="none" xmlns="http://www.w3.org/2000/svg">
<path d="M32.076 12.111V33.511C26.641 34.395 20.312 37.321 17.496 38.723C14.681 37.323 8.35202 34.395 2.91602 33.511V12.111L0 10.653V36.168C6.561 36.168 17.5 42.0001 17.5 42.0001C17.5 42.0001 28.435 36.168 35 36.168V10.653L32.076 12.111Z" fill="white"/>
<path d="M1.458 5.55C2.26323 5.55 2.916 4.89723 2.916 4.092C2.916 3.28677 2.26323 2.634 1.458 2.634C0.652769 2.634 0 3.28677 0 4.092C0 4.89723 0.652769 5.55 1.458 5.55Z" fill="white"/>
<path d="M6.56103 5.55C7.36626 5.55 8.01903 4.89723 8.01903 4.092C8.01903 3.28677 7.36626 2.634 6.56103 2.634C5.7558 2.634 5.10303 3.28677 5.10303 4.092C5.10303 4.89723 5.7558 5.55 6.56103 5.55Z" fill="white"/>
<path d="M28.9889 3.25208C29.7329 2.94393 30.0861 2.09105 29.778 1.34711C29.4698 0.603172 28.617 0.249896 27.873 0.558045C27.1291 0.866194 26.7758 1.71908 27.084 2.46301C27.3921 3.20695 28.245 3.56023 28.9889 3.25208Z" fill="white"/>
<path d="M34.0919 3.25208C34.8359 2.94393 35.1892 2.09105 34.881 1.34711C34.5729 0.603172 33.72 0.249896 32.976 0.558045C32.2321 0.866194 31.8788 1.71908 32.187 2.46301C32.4951 3.20695 33.348 3.56023 34.0919 3.25208Z" fill="white"/>
<path d="M13.851 35.428C15.231 36.017 16.4759 36.596 17.4959 37.093C18.5159 36.593 19.761 36.017 21.141 35.428V30.3281H13.851V35.428Z" fill="white"/>
<path d="M4.37402 17.943V32.299C6.86041 32.8484 9.29835 33.5978 11.664 34.5399V28.149H23.328V34.5399C25.6937 33.5978 28.1317 32.8484 30.618 32.299V17.943H26.244V20.859H23.328V17.943H18.954V20.859H16.038V17.943H11.664V20.859H8.74802V17.943H4.37402Z" fill="white"/>
<path d="M23.3279 12.111H11.6639V16.485H23.3279V12.111Z" fill="white"/>
<path d="M18.225 8.46606C18.0317 8.46606 17.8463 8.38916 17.7096 8.25244C17.5729 8.11573 17.4961 7.9304 17.4961 7.73706C17.4961 7.54372 17.5729 7.35827 17.7096 7.22156C17.8463 7.08484 18.0317 7.00806 18.225 7.00806H20.777L18.225 4.17297V2.63403H21.1411V0.447021H16.7671V4.17297L10.9351 10.653H24.057L22.088 8.46606H18.225Z" fill="white"/>
<path d="M4.37402 9.19501V16.485H10.206V15.027C10.206 13.4803 9.59158 11.9968 8.49786 10.9031C7.40415 9.80942 5.92077 9.19501 4.37402 9.19501Z" fill="white"/>
<path d="M30.618 9.19501V16.485H24.786V15.027C24.786 13.4803 25.4005 11.9968 26.4942 10.9031C27.5879 9.80942 29.0713 9.19501 30.618 9.19501Z" fill="white"/>
</svg>
