<svg width="27" height="28" viewBox="0 0 27 28" fill="none" xmlns="http://www.w3.org/2000/svg">
<g clip-path="url(#clip0_1_934)">
<path d="M3.21104 25.982V24.082L1.82304 25.123C1.16631 24.6374 0.585609 24.0567 0.100052 23.4C0.0360823 23.313 0.00109322 23.208 4.61914e-05 23.1C-0.000854224 23.0342 0.0114174 22.9689 0.0361484 22.9079C0.0608795 22.847 0.0975821 22.7916 0.144059 22.745C1.03823 21.7447 1.68855 20.5508 2.04405 19.257C5.36009 19.2782 8.67063 18.9842 11.9311 18.379C12.2721 18.7588 12.715 19.0326 13.2072 19.1679C13.6994 19.3032 14.22 19.2943 14.7073 19.1422C15.1945 18.99 15.6278 18.7012 15.9555 18.3099C16.2833 17.9186 16.4917 17.4414 16.5561 16.935C18.1512 16.2379 19.5964 15.2389 20.8121 13.993C22.5532 14.6068 24.3805 14.9413 26.2261 14.984C26.3023 14.9845 26.3775 15.0013 26.4467 15.0334C26.5158 15.0654 26.5773 15.1119 26.627 15.1697C26.6766 15.2275 26.7133 15.2953 26.7346 15.3685C26.7558 15.4417 26.7611 15.5186 26.7501 15.594C26.4795 16.7393 25.9583 17.8103 25.2241 18.73H23.5471L24.3021 19.861C21.1331 23.3277 17.0077 25.7772 12.4471 26.9L11.2361 24.077L10.2891 27.232C9.88905 27.266 9.48905 27.288 9.09605 27.288C7.05779 27.3335 5.03874 26.8854 3.21104 25.982ZM12.5761 17.477L11.5061 15.871C11.2787 15.517 11.1992 15.0879 11.2849 14.676C11.3705 14.264 11.6144 13.9022 11.9641 13.6682C12.3138 13.4342 12.7413 13.3467 13.1548 13.4247C13.5682 13.5026 13.9346 13.7397 14.1751 14.085L15.2451 15.685C15.3627 15.8602 15.4446 16.057 15.4862 16.2639C15.5278 16.4708 15.5281 16.6839 15.4872 16.891C15.4464 17.098 15.3651 17.295 15.2481 17.4707C15.131 17.6463 14.9805 17.7971 14.8051 17.9146C14.6298 18.032 14.433 18.1137 14.226 18.155C14.019 18.1963 13.8059 18.1964 13.5989 18.1553C13.3919 18.1142 13.195 18.0327 13.0195 17.9155C12.844 17.7982 12.6933 17.6475 12.5761 17.472V17.477ZM12.3081 14.982C12.3063 15.0888 12.3374 15.1935 12.3971 15.282L13.4671 16.888C13.5308 16.9842 13.6239 17.0572 13.7324 17.0961C13.841 17.1351 13.9593 17.1379 14.0696 17.1042C14.1799 17.0704 14.2763 17.002 14.3445 16.9089C14.4128 16.8159 14.4491 16.7033 14.4481 16.588C14.4491 16.4811 14.4173 16.3764 14.3571 16.288L13.2831 14.677C13.2186 14.5831 13.1257 14.5122 13.0182 14.4747C12.9106 14.4372 12.7938 14.435 12.6849 14.4685C12.576 14.502 12.4806 14.5694 12.4126 14.6608C12.3447 14.7523 12.3077 14.8631 12.3071 14.977L12.3081 14.982ZM2.87505 15.499C5.3172 15.4794 7.7548 15.2846 10.1691 14.916C10.1691 14.939 10.1691 14.96 10.1691 14.983C10.168 15.5108 10.324 16.027 10.6171 16.466L11.2671 17.44C8.32322 17.9407 5.34212 18.1899 2.35603 18.185C2.57959 17.3006 2.75254 16.4041 2.87404 15.5L2.87505 15.499ZM16.1351 15.099L15.0791 13.515C15.8541 13.1658 16.584 12.7243 17.2531 12.2C18.0382 12.7285 18.8684 13.1866 19.7341 13.569C18.7745 14.4869 17.6738 15.2449 16.4741 15.814C16.397 15.5604 16.2824 15.3197 16.1341 15.1L16.1351 15.099ZM3.21205 10.169C3.21205 1.06899 6.42206 0.00299072 8.02806 0.00299072C11.1611 0.00299072 14.2951 2.29699 15.7491 3.52699C15.8452 3.60816 15.9223 3.70941 15.975 3.82362C16.0277 3.93783 16.0547 4.06221 16.0541 4.18799C16.054 4.3531 16.007 4.51477 15.9184 4.65412C15.8299 4.79348 15.7035 4.90477 15.5541 4.97499C15.0413 5.2217 14.4801 5.35149 13.9111 5.35499C13.4822 5.30326 13.0694 5.16052 12.7001 4.93632C12.3309 4.71213 12.0138 4.41164 11.7701 4.05499C11.5941 3.73399 11.2771 3.18999 11.1701 2.97399C11.1091 2.84721 11.0002 2.74986 10.8675 2.70335C10.7347 2.65685 10.5889 2.66499 10.4621 2.72599C10.3353 2.78699 10.238 2.89585 10.1915 3.02862C10.145 3.1614 10.1531 3.30721 10.2141 3.43399C11.5656 6.59341 13.6657 9.37648 16.3331 11.543C15.6887 12.0159 14.9901 12.41 14.2521 12.717C13.937 12.5179 13.5835 12.3875 13.2146 12.3342C12.8457 12.2809 12.4697 12.306 12.1111 12.4078C11.7526 12.5096 11.4195 12.6859 11.1336 12.9251C10.8478 13.1643 10.6155 13.461 10.4521 13.796C7.98865 14.2003 5.49736 14.411 3.00105 14.426C3.14428 13.0106 3.21437 11.5887 3.21104 10.166L3.21205 10.169ZM5.94804 3.70999C5.66894 4.45635 5.47373 5.23145 5.36604 6.02099C5.35806 6.06556 5.35372 6.11071 5.35304 6.15599C5.34886 6.35925 5.42221 6.55648 5.55821 6.7076C5.69421 6.85873 5.88267 6.9524 6.08525 6.96958C6.28783 6.98677 6.48933 6.92619 6.64885 6.80015C6.80837 6.6741 6.91392 6.49205 6.94405 6.29099C7.03424 5.62244 7.19653 4.96562 7.42805 4.33199C7.4689 4.23481 7.49019 4.13054 7.49074 4.02513C7.49128 3.91972 7.47106 3.81523 7.43123 3.71764C7.39139 3.62004 7.33271 3.53125 7.25856 3.45633C7.18441 3.38141 7.09622 3.32183 6.99904 3.28099C6.90186 3.24014 6.79759 3.21884 6.69218 3.2183C6.58677 3.21776 6.48228 3.23798 6.38469 3.27782C6.28709 3.31765 6.19832 3.37632 6.1234 3.45047C6.04848 3.52463 5.98888 3.61281 5.94804 3.70999Z" fill="url(#paint0_linear_1_934)"/>
</g>
<defs>
<linearGradient id="paint0_linear_1_934" x1="5.50006" y1="0.499984" x2="19.5001" y2="25.5" gradientUnits="userSpaceOnUse">
<stop stop-color="#A978FB"/>
<stop offset="1" stop-color="#752AF2"/>
</linearGradient>
<clipPath id="clip0_1_934">
<rect width="27" height="28" fill="white"/>
</clipPath>
</defs>
</svg>
